<svg width="370" height="126" viewBox="0 0 370 126" fill="none" xmlns="http://www.w3.org/2000/svg">
<path d="M30.9943 1.45454H36.6307V32.2727C36.6307 35.4545 35.8807 38.2955 34.3807 40.7955C32.8958 43.2803 30.7974 45.2424 28.0852 46.6818C25.3731 48.1061 22.1913 48.8182 18.5398 48.8182C14.8883 48.8182 11.7064 48.1061 8.99432 46.6818C6.2822 45.2424 4.17614 43.2803 2.67614 40.7955C1.19129 38.2955 0.448864 35.4545 0.448864 32.2727V1.45454H6.08523V31.8182C6.08523 34.0909 6.58523 36.1136 7.58523 37.8864C8.58523 39.6439 10.0095 41.0303 11.858 42.0455C13.7216 43.0455 15.9489 43.5455 18.5398 43.5455C21.1307 43.5455 23.358 43.0455 25.2216 42.0455C27.0852 41.0303 28.5095 39.6439 29.4943 37.8864C30.4943 36.1136 30.9943 34.0909 30.9943 31.8182V1.45454ZM84.7955 1.45454V48H79.3409L53.9773 11.4545H53.5227V48H47.8864V1.45454H53.3409L78.7955 38.0909H79.25V1.45454H84.7955ZM101.71 1.45454V48H96.0739V1.45454H101.71ZM114.92 1.45454L128.739 40.6364H129.284L143.102 1.45454H149.011L131.92 48H126.102L109.011 1.45454H114.92ZM156.261 48V1.45454H184.352V6.45454H161.898V22.1818H182.898V27.1818H161.898V43H184.716V48H156.261ZM194.511 48V1.45454H210.239C213.875 1.45454 216.86 2.07576 219.193 3.31818C221.527 4.54545 223.254 6.23485 224.375 8.38636C225.496 10.5379 226.057 12.9848 226.057 15.7273C226.057 18.4697 225.496 20.9015 224.375 23.0227C223.254 25.1439 221.534 26.8106 219.216 28.0227C216.898 29.2197 213.936 29.8182 210.33 29.8182H197.602V24.7273H210.148C212.633 24.7273 214.633 24.3636 216.148 23.6364C217.678 22.9091 218.784 21.8788 219.466 20.5455C220.163 19.197 220.511 17.5909 220.511 15.7273C220.511 13.8636 220.163 12.2348 219.466 10.8409C218.769 9.44697 217.655 8.37121 216.125 7.61364C214.595 6.84091 212.572 6.45454 210.057 6.45454H200.148V48H194.511ZM216.42 27.0909L227.875 48H221.33L210.057 27.0909H216.42ZM260.903 13.0909C260.631 10.7879 259.525 9 257.585 7.72727C255.646 6.45454 253.267 5.81818 250.449 5.81818C248.388 5.81818 246.585 6.15151 245.04 6.81818C243.509 7.48485 242.313 8.40151 241.449 9.56818C240.6 10.7348 240.176 12.0606 240.176 13.5455C240.176 14.7879 240.472 15.8561 241.062 16.75C241.669 17.6288 242.441 18.3636 243.381 18.9545C244.32 19.5303 245.305 20.0076 246.335 20.3864C247.366 20.75 248.312 21.0455 249.176 21.2727L253.903 22.5455C255.116 22.8636 256.464 23.303 257.949 23.8636C259.449 24.4242 260.881 25.1894 262.244 26.1591C263.623 27.1136 264.759 28.3409 265.653 29.8409C266.547 31.3409 266.994 33.1818 266.994 35.3636C266.994 37.8788 266.335 40.1515 265.017 42.1818C263.714 44.2121 261.805 45.8258 259.29 47.0227C256.79 48.2197 253.752 48.8182 250.176 48.8182C246.843 48.8182 243.956 48.2803 241.517 47.2045C239.093 46.1288 237.184 44.6288 235.79 42.7045C234.411 40.7803 233.631 38.5455 233.449 36H239.267C239.419 37.7576 240.009 39.2121 241.04 40.3636C242.085 41.5 243.403 42.3485 244.994 42.9091C246.6 43.4545 248.328 43.7273 250.176 43.7273C252.328 43.7273 254.259 43.3788 255.972 42.6818C257.684 41.9697 259.04 40.9848 260.04 39.7273C261.04 38.4545 261.54 36.9697 261.54 35.2727C261.54 33.7273 261.108 32.4697 260.244 31.5C259.381 30.5303 258.244 29.7424 256.835 29.1364C255.426 28.5303 253.903 28 252.267 27.5455L246.54 25.9091C242.903 24.8636 240.025 23.3712 237.903 21.4318C235.782 19.4924 234.722 16.9545 234.722 13.8182C234.722 11.2121 235.426 8.93939 236.835 7C238.259 5.04545 240.169 3.5303 242.562 2.45454C244.972 1.36363 247.661 0.81818 250.631 0.81818C253.631 0.81818 256.297 1.35606 258.631 2.43182C260.964 3.49242 262.813 4.94697 264.176 6.79545C265.555 8.64394 266.282 10.7424 266.358 13.0909H260.903ZM281.898 1.45454V48H276.261V1.45454H281.898ZM290.653 6.45454V1.45454H325.562V6.45454H310.926V48H305.29V6.45454H290.653ZM330.261 1.45454H336.716L349.625 23.1818H350.17L363.08 1.45454H369.534L352.716 28.8182V48H347.08V28.8182L330.261 1.45454ZM99.0114 125V78.4545H104.648V120H126.284V125H99.0114ZM172.472 101.727C172.472 106.636 171.585 110.879 169.812 114.455C168.04 118.03 165.608 120.788 162.517 122.727C159.426 124.667 155.896 125.636 151.926 125.636C147.956 125.636 144.426 124.667 141.335 122.727C138.244 120.788 135.813 118.03 134.04 114.455C132.267 110.879 131.381 106.636 131.381 101.727C131.381 96.8182 132.267 92.5758 134.04 89C135.813 85.4242 138.244 82.6667 141.335 80.7273C144.426 78.7879 147.956 77.8182 151.926 77.8182C155.896 77.8182 159.426 78.7879 162.517 80.7273C165.608 82.6667 168.04 85.4242 169.812 89C171.585 92.5758 172.472 96.8182 172.472 101.727ZM167.017 101.727C167.017 97.697 166.343 94.2955 164.994 91.5227C163.661 88.75 161.85 86.6515 159.562 85.2273C157.29 83.803 154.744 83.0909 151.926 83.0909C149.108 83.0909 146.555 83.803 144.267 85.2273C141.994 86.6515 140.184 88.75 138.835 91.5227C137.502 94.2955 136.835 97.697 136.835 101.727C136.835 105.758 137.502 109.159 138.835 111.932C140.184 114.705 141.994 116.803 144.267 118.227C146.555 119.652 149.108 120.364 151.926 120.364C154.744 120.364 157.29 119.652 159.562 118.227C161.85 116.803 163.661 114.705 164.994 111.932C166.343 109.159 167.017 105.758 167.017 101.727ZM213.767 93C213.267 91.4697 212.608 90.0985 211.79 88.8864C210.987 87.6591 210.025 86.6136 208.903 85.75C207.797 84.8864 206.54 84.2273 205.131 83.7727C203.722 83.3182 202.176 83.0909 200.494 83.0909C197.737 83.0909 195.229 83.803 192.972 85.2273C190.714 86.6515 188.919 88.75 187.585 91.5227C186.252 94.2955 185.585 97.697 185.585 101.727C185.585 105.758 186.259 109.159 187.608 111.932C188.956 114.705 190.782 116.803 193.085 118.227C195.388 119.652 197.979 120.364 200.858 120.364C203.525 120.364 205.873 119.795 207.903 118.659C209.949 117.508 211.54 115.886 212.676 113.795C213.828 111.689 214.403 109.212 214.403 106.364L216.131 106.727H202.131V101.727H219.858V106.727C219.858 110.561 219.04 113.894 217.403 116.727C215.782 119.561 213.54 121.758 210.676 123.318C207.828 124.864 204.555 125.636 200.858 125.636C196.737 125.636 193.116 124.667 189.994 122.727C186.888 120.788 184.464 118.03 182.722 114.455C180.994 110.879 180.131 106.636 180.131 101.727C180.131 98.0455 180.623 94.7348 181.608 91.7955C182.608 88.8409 184.017 86.3258 185.835 84.25C187.653 82.1742 189.805 80.5833 192.29 79.4773C194.775 78.3712 197.509 77.8182 200.494 77.8182C202.949 77.8182 205.237 78.1894 207.358 78.9318C209.494 79.6591 211.396 80.697 213.062 82.0455C214.744 83.3788 216.146 84.9773 217.267 86.8409C218.388 88.6894 219.161 90.7424 219.585 93H213.767ZM268.784 101.727C268.784 106.636 267.898 110.879 266.125 114.455C264.352 118.03 261.92 120.788 258.83 122.727C255.739 124.667 252.208 125.636 248.239 125.636C244.269 125.636 240.739 124.667 237.648 122.727C234.557 120.788 232.125 118.03 230.352 114.455C228.58 110.879 227.693 106.636 227.693 101.727C227.693 96.8182 228.58 92.5758 230.352 89C232.125 85.4242 234.557 82.6667 237.648 80.7273C240.739 78.7879 244.269 77.8182 248.239 77.8182C252.208 77.8182 255.739 78.7879 258.83 80.7273C261.92 82.6667 264.352 85.4242 266.125 89C267.898 92.5758 268.784 96.8182 268.784 101.727ZM263.33 101.727C263.33 97.697 262.655 94.2955 261.307 91.5227C259.973 88.75 258.163 86.6515 255.875 85.2273C253.602 83.803 251.057 83.0909 248.239 83.0909C245.42 83.0909 242.867 83.803 240.58 85.2273C238.307 86.6515 236.496 88.75 235.148 91.5227C233.814 94.2955 233.148 97.697 233.148 101.727C233.148 105.758 233.814 109.159 235.148 111.932C236.496 114.705 238.307 116.803 240.58 118.227C242.867 119.652 245.42 120.364 248.239 120.364C251.057 120.364 253.602 119.652 255.875 118.227C258.163 116.803 259.973 114.705 261.307 111.932C262.655 109.159 263.33 105.758 263.33 101.727Z" fill="#0000FF"/>
</svg>
